<svg width="35" height="36" viewBox="0 0 35 36" fill="none" xmlns="http://www.w3.org/2000/svg">
<path d="M10.9375 12.5313H24.0625M10.9375 16.9063H17.5M3.28125 19.1083C3.28125 21.4417 4.91896 23.4746 7.22896 23.8144C8.87542 24.0565 10.5394 24.2417 12.2208 24.3671C12.7313 24.405 13.1979 24.6733 13.4823 25.0977L17.5 31.125L21.5177 25.0977C21.6587 24.8881 21.8455 24.7134 22.0641 24.5868C22.2827 24.4602 22.5272 24.385 22.7792 24.3671C24.4492 24.2424 26.1142 24.0581 27.771 23.8144C30.081 23.4746 31.7188 21.4431 31.7188 19.1069V10.3306C31.7188 7.99438 30.081 5.96292 27.771 5.62313C24.3701 5.12396 20.9373 4.87392 17.5 4.875C14.0117 4.875 10.5817 5.13021 7.22896 5.62313C4.91896 5.96292 3.28125 7.99584 3.28125 10.3306V19.1069V19.1083Z" stroke="white" stroke-width="1.5" stroke-linecap="round" stroke-linejoin="round"/>
</svg>
