<svg width="35" height="36" viewBox="0 0 35 36" fill="none" xmlns="http://www.w3.org/2000/svg">
<path d="M3.28125 10.3438C3.28125 22.4246 13.0754 32.2188 25.1563 32.2188H28.4375C29.3077 32.2188 30.1423 31.873 30.7577 31.2577C31.373 30.6423 31.7188 29.8077 31.7188 28.9375V26.9367C31.7188 26.1842 31.2069 25.5279 30.4763 25.3456L24.026 23.7327C23.3844 23.5723 22.7106 23.8129 22.3154 24.3408L20.9008 26.2265C20.4896 26.7748 19.7794 27.0169 19.1363 26.7806C16.7488 25.9029 14.5806 24.5167 12.782 22.718C10.9833 20.9194 9.59711 18.7512 8.71938 16.3638C8.48313 15.7206 8.72521 15.0104 9.27354 14.5992L11.1592 13.1846C11.6885 12.7894 11.9277 12.1142 11.7673 11.474L10.1544 5.02375C10.0656 4.66893 9.86084 4.35394 9.57258 4.12882C9.28431 3.90371 8.92909 3.78137 8.56333 3.78125H6.5625C5.69226 3.78125 4.85766 4.12695 4.24231 4.74231C3.62695 5.35766 3.28125 6.19226 3.28125 7.0625V10.3438Z" stroke="white" stroke-width="1.5" stroke-linecap="round" stroke-linejoin="round"/>
</svg>
