<svg width="35" height="36" viewBox="0 0 35 36" fill="none" xmlns="http://www.w3.org/2000/svg">
<path d="M21.6665 25.4113C24.3836 25.0895 27.0534 24.4483 29.6202 23.5008C27.4464 21.0928 26.2452 17.9628 26.25 14.7188V13.625C26.25 11.3044 25.3281 9.07876 23.6872 7.43782C22.0463 5.79687 19.8207 4.875 17.5 4.875C15.1794 4.875 12.9538 5.79687 11.3128 7.43782C9.67189 9.07876 8.75001 11.3044 8.75001 13.625V14.7188C8.75441 17.963 7.5527 21.0931 5.37835 23.5008C7.90564 24.4342 10.57 25.0831 13.3336 25.4113M21.6665 25.4113C18.8985 25.7396 16.1015 25.7396 13.3336 25.4113M21.6665 25.4113C21.8766 26.0673 21.9289 26.7637 21.819 27.4438C21.7091 28.1238 21.4402 28.7683 21.0341 29.3248C20.628 29.8813 20.0963 30.334 19.4822 30.6461C18.868 30.9582 18.1889 31.1209 17.5 31.1209C16.8111 31.1209 16.132 30.9582 15.5179 30.6461C14.9037 30.334 14.372 29.8813 13.9659 29.3248C13.5598 28.7683 13.2909 28.1238 13.181 27.4438C13.0711 26.7637 13.1234 26.0673 13.3336 25.4113M4.55585 11.4375C4.96705 8.99475 6.06347 6.71898 7.71751 4.875M27.2825 4.875C28.9366 6.71898 30.033 8.99475 30.4442 11.4375" stroke="white" stroke-width="1.5" stroke-linecap="round" stroke-linejoin="round"/>
</svg>
