<svg width="191" height="86" viewBox="0 0 191 86" fill="none" xmlns="http://www.w3.org/2000/svg">
<path d="M35.125 77L33.0469 77.1914C32.0443 70.9023 30.9596 65.5156 29.793 61.0312C29.1914 62.4531 28.526 64.4583 27.7969 67.0469C27.0859 69.6172 26.5938 71.2852 26.3203 72.0508C26.2839 72.0508 26.2201 72.0599 26.1289 72.0781C26.056 72.0781 25.9922 72.0781 25.9375 72.0781C25.6823 72.0781 25.263 72.0508 24.6797 71.9961C24.0964 71.9414 23.7227 71.9141 23.5586 71.9141C23.5404 71.3854 23.0755 69.6263 22.1641 66.6367C21.2526 63.6289 20.7057 61.7057 20.5234 60.8672C20.1953 63.8203 18.9193 69.1979 16.6953 77L15 76.8359C15.2552 74.849 15.8841 71.7227 16.8867 67.457C17.8893 63.1914 18.4818 59.8919 18.6641 57.5586C18.9922 57.5221 19.2565 57.5039 19.457 57.5039C19.6393 57.5039 20.3138 57.5768 21.4805 57.7227C21.7357 57.7591 22.1003 58.5885 22.5742 60.2109C23.0664 61.8151 23.5586 63.5833 24.0508 65.5156C24.543 67.4479 24.8529 68.5872 24.9805 68.9336C25.4909 67.6758 26.1016 65.6341 26.8125 62.8086C27.5417 59.9831 28.0521 58.1875 28.3438 57.4219C28.6354 57.4401 29.556 57.5221 31.1055 57.668C31.5794 59.5091 32.0352 61.4961 32.4727 63.6289C32.9284 65.7617 33.4115 68.1862 33.9219 70.9023C34.4505 73.6185 34.8516 75.651 35.125 77ZM45.625 62.8086L46.0352 77.4922C45.8529 78.0391 45.543 78.3125 45.1055 78.3125C44.7956 78.3125 44.4857 78.1849 44.1758 77.9297C43.8841 77.6745 43.7018 77.3646 43.6289 77L43.9023 71.0664C43.1367 71.5586 42.3438 71.8138 41.5234 71.832C40.8307 74.1107 39.9557 75.7786 38.8984 76.8359C37.8594 77.8932 36.1914 78.7409 33.8945 79.3789L33.457 78.2031C36.8659 77.3464 38.8073 75.0951 39.2812 71.4492C38.4062 71.0846 37.6771 70.5286 37.0938 69.7812C36.5286 69.0339 36.2461 68.1771 36.2461 67.2109C36.2461 65.2786 36.7383 63.9935 37.7227 63.3555C38.707 62.7174 40.2656 62.3984 42.3984 62.3984C43.5104 62.3984 44.5859 62.5352 45.625 62.8086ZM44.1211 68.7695L43.9844 64.4492C43.3464 64.2487 42.4076 64.1484 41.168 64.1484C40.293 64.1484 39.5456 64.349 38.9258 64.75C38.306 65.1328 37.9961 65.7617 37.9961 66.6367C37.9961 67.6211 38.388 68.4688 39.1719 69.1797C39.9557 69.8724 40.8125 70.2188 41.7422 70.2188C42.8359 70.2188 43.6289 69.7357 44.1211 68.7695ZM57.4922 63.4375L57.3555 64.6133C56.5898 64.5039 55.9336 64.4492 55.3867 64.4492C54.1289 64.4492 53.0898 64.832 52.2695 65.5977C51.4492 66.3451 50.8841 67.2383 50.5742 68.2773C50.2826 69.2982 50.1367 70.4375 50.1367 71.6953C50.1367 72.2786 50.1732 72.7982 50.2461 73.2539C50.319 73.7096 50.4466 74.1562 50.6289 74.5938C50.8294 75.0312 51.1302 75.3776 51.5312 75.6328C51.9505 75.8698 52.4609 75.9883 53.0625 75.9883C53.8646 75.9883 54.8854 75.8333 56.125 75.5234C56.5078 75.3776 56.8086 75.3047 57.0273 75.3047C57.4648 75.3047 57.7292 75.8151 57.8203 76.8359C56.2161 77.3464 54.7305 77.6016 53.3633 77.6016C51.3763 77.6016 50.0273 77.1185 49.3164 76.1523C48.6237 75.168 48.2773 73.582 48.2773 71.3945C48.2773 70.1185 48.3594 69.0065 48.5234 68.0586C48.7057 67.0924 49.0156 66.1992 49.4531 65.3789C49.8906 64.5404 50.5195 63.9023 51.3398 63.4648C52.1784 63.0273 53.1992 62.8086 54.4023 62.8086C55.7513 62.8086 56.7812 63.0182 57.4922 63.4375ZM67.3906 63.1367L68.6211 63.4102L69.25 76.6719C69.0859 77.2188 68.7669 77.4922 68.293 77.4922C67.9648 77.4922 67.6458 77.3555 67.3359 77.082C67.026 76.8268 66.8346 76.5078 66.7617 76.125C66.7617 76.0703 66.8438 74.5299 67.0078 71.5039V71.2852C66.4974 71.2487 65.7409 71.2305 64.7383 71.2305C63.2253 71.2305 62.0859 71.1849 61.3203 71.0938C61.4115 72.151 61.5299 73.8555 61.6758 76.207C61.5117 76.7721 61.1927 77.0547 60.7188 77.0547C60.3906 77.0547 60.0716 76.9271 59.7617 76.6719C59.4701 76.3984 59.2878 76.0703 59.2148 75.6875C59.2695 74.776 59.2969 73.8646 59.2969 72.9531C59.2969 72.3698 59.2878 71.4948 59.2695 70.3281C59.2513 69.1615 59.2422 68.2956 59.2422 67.7305C59.2422 65.9805 59.2969 64.513 59.4062 63.3281L60.6367 63.6289C61.0013 67.5846 61.1927 69.6172 61.2109 69.7266C64.3281 69.8906 65.9323 69.9727 66.0234 69.9727C66.7708 69.9727 67.1445 69.9271 67.1445 69.8359C67.1445 69.4714 67.181 68.3138 67.2539 66.3633C67.3268 64.4128 67.3724 63.3372 67.3906 63.1367ZM72.4492 65.1875L71.9023 63.793C72.3763 63.319 72.9779 62.9453 73.707 62.6719C74.4362 62.3802 75.1562 62.2344 75.8672 62.2344C78.9479 62.2344 80.4883 64.8958 80.4883 70.2188C80.4883 70.9479 80.4427 72.0234 80.3516 73.4453C80.2786 74.8672 80.2422 75.9336 80.2422 76.6445C80.0964 77.2096 79.8138 77.4922 79.3945 77.4922C79.0664 77.4922 78.7656 77.3281 78.4922 77C78.2188 76.6719 78.082 76.3073 78.082 75.9062C78.082 75.7786 78.0911 75.6875 78.1094 75.6328C76.9792 76.7266 75.776 77.2734 74.5 77.2734C73.5339 77.2734 72.6862 76.9271 71.957 76.2344C71.2461 75.5234 70.8906 74.6667 70.8906 73.6641C70.8906 71.9688 71.5469 70.4375 72.8594 69.0703C74.1901 67.7031 75.694 67.0195 77.3711 67.0195C77.444 67.0195 77.5169 67.0286 77.5898 67.0469C77.6628 67.0469 77.7448 67.056 77.8359 67.0742C77.9453 67.0924 78.0273 67.1016 78.082 67.1016C77.9362 64.9688 77.0885 63.9023 75.5391 63.9023C74.6276 63.9023 73.5977 64.3307 72.4492 65.1875ZM78.1641 73.7461C78.2005 72.4701 78.2188 71.5039 78.2188 70.8477C78.2188 70.3008 78.2005 69.5352 78.1641 68.5508H77.9453C76.651 68.569 75.4661 69.0521 74.3906 70C73.3333 70.9479 72.8047 72.0964 72.8047 73.4453C72.8047 74.0286 72.9779 74.4935 73.3242 74.8398C73.6888 75.1862 74.1263 75.3594 74.6367 75.3594C75.4388 75.3594 76.6146 74.8216 78.1641 73.7461ZM92.082 62.8086L92.4922 77.4922C92.3099 78.0391 92 78.3125 91.5625 78.3125C91.2526 78.3125 90.9427 78.1849 90.6328 77.9297C90.3411 77.6745 90.1589 77.3646 90.0859 77L90.3594 71.0664C89.5938 71.5586 88.8008 71.8138 87.9805 71.832C87.2878 74.1107 86.4128 75.7786 85.3555 76.8359C84.3164 77.8932 82.6484 78.7409 80.3516 79.3789L79.9141 78.2031C83.3229 77.3464 85.2643 75.0951 85.7383 71.4492C84.8633 71.0846 84.1341 70.5286 83.5508 69.7812C82.9857 69.0339 82.7031 68.1771 82.7031 67.2109C82.7031 65.2786 83.1953 63.9935 84.1797 63.3555C85.1641 62.7174 86.7227 62.3984 88.8555 62.3984C89.9674 62.3984 91.043 62.5352 92.082 62.8086ZM90.5781 68.7695L90.4414 64.4492C89.8034 64.2487 88.8646 64.1484 87.625 64.1484C86.75 64.1484 86.0026 64.349 85.3828 64.75C84.763 65.1328 84.4531 65.7617 84.4531 66.6367C84.4531 67.6211 84.8451 68.4688 85.6289 69.1797C86.4128 69.8724 87.2695 70.2188 88.1992 70.2188C89.293 70.2188 90.0859 69.7357 90.5781 68.7695ZM116.172 80.5L114.941 80.2266C114.777 78.8411 114.495 77.7109 114.094 76.8359C112.581 76.7266 111.068 76.6719 109.555 76.6719C108.26 76.6719 106.337 76.7266 103.785 76.8359C103.676 77.2188 103.466 78.5495 103.156 80.8281L101.98 80.7188C101.616 78.7682 101.434 77.0911 101.434 75.6875C101.434 75.6146 101.434 75.487 101.434 75.3047C101.452 75.1224 101.461 74.9857 101.461 74.8945C101.479 74.8945 101.78 74.8945 102.363 74.8945C102.947 74.8763 103.247 74.8672 103.266 74.8672C103.74 73.901 104.122 72.862 104.414 71.75C104.724 70.6198 104.934 69.4167 105.043 68.1406C105.152 66.8464 105.225 65.7161 105.262 64.75C105.298 63.7656 105.316 62.5169 105.316 61.0039C105.316 59.4909 105.326 58.3607 105.344 57.6133C106.62 57.5221 109.464 57.4766 113.875 57.4766L114.477 74.6211C114.768 74.6576 115.069 74.6849 115.379 74.7031C115.689 74.7214 115.99 74.7396 116.281 74.7578C116.227 75.1406 116.199 75.6146 116.199 76.1797C116.199 76.4714 116.208 76.9271 116.227 77.5469C116.245 78.1849 116.254 78.6589 116.254 78.9688C116.254 79.5885 116.227 80.099 116.172 80.5ZM105.453 74.7031C105.945 74.7031 106.684 74.7214 107.668 74.7578C108.652 74.776 109.382 74.7852 109.855 74.7852C110.548 74.7852 111.268 74.7578 112.016 74.7031C112.052 73.5547 112.07 71.7591 112.07 69.3164V63.875C112.07 61.7057 112.089 60.0924 112.125 59.0352C111.615 58.9987 111.232 58.9805 110.977 58.9805C110.557 58.9805 109.947 59.0078 109.145 59.0625C108.361 59.1172 107.832 59.1536 107.559 59.1719C107.504 59.9922 107.44 61.2865 107.367 63.0547C107.294 64.8047 107.221 66.1628 107.148 67.1289C107.076 68.0951 106.893 69.2982 106.602 70.7383C106.328 72.1602 105.945 73.4818 105.453 74.7031ZM117.949 71.1758C117.949 70.4466 118.022 69.6354 118.168 68.7422C118.332 67.849 118.569 66.9102 118.879 65.9258C119.189 64.9414 119.654 64.1211 120.273 63.4648C120.893 62.8086 121.613 62.4805 122.434 62.4805C124.184 62.4805 125.587 63.2734 126.645 64.8594C127.702 66.4271 128.23 68.1771 128.23 70.1094C128.23 70.9297 128.139 71.75 127.957 72.5703C127.793 73.3724 127.529 74.1654 127.164 74.9492C126.799 75.7331 126.271 76.3893 125.578 76.918C124.904 77.4284 124.111 77.7201 123.199 77.793C121.522 77.5742 120.228 76.8633 119.316 75.6602C118.405 74.4388 117.949 72.944 117.949 71.1758ZM122.598 63.9023C121.96 63.9753 121.422 64.5586 120.984 65.6523C120.547 66.7461 120.264 67.8125 120.137 68.8516C120.009 69.8724 119.945 70.7747 119.945 71.5586C119.945 72.5794 120.255 73.5273 120.875 74.4023C121.513 75.2591 122.224 75.6875 123.008 75.6875C123.573 75.6875 124.083 75.4688 124.539 75.0312C124.995 74.5938 125.35 74.056 125.605 73.418C125.879 72.7617 126.079 72.1055 126.207 71.4492C126.353 70.793 126.426 70.2096 126.426 69.6992C126.426 68.2044 126.089 66.901 125.414 65.7891C124.74 64.6771 123.801 64.0482 122.598 63.9023ZM127.52 79.4609L127.082 78.2852C127.684 78.0482 128.23 77.6745 128.723 77.1641C129.197 76.6536 129.589 76.125 129.898 75.5781C130.208 75.013 130.473 74.3112 130.691 73.4727C130.91 72.6341 131.065 71.9049 131.156 71.2852C131.266 70.6471 131.348 69.8633 131.402 68.9336C131.457 68.0039 131.484 67.3112 131.484 66.8555C131.503 66.3815 131.512 65.7526 131.512 64.9688C131.512 63.8568 131.612 63.1914 131.812 62.9727C132.068 62.6992 133.48 62.5625 136.051 62.5625C138.074 62.5625 139.223 62.5534 139.496 62.5352C139.533 69.9362 139.624 74.7396 139.77 76.9453C139.587 77.4922 139.268 77.7656 138.812 77.7656C138.503 77.7656 138.202 77.638 137.91 77.3828C137.618 77.1276 137.436 76.8177 137.363 76.4531C137.345 75.7422 137.336 74.6849 137.336 73.2812C137.336 72.5885 137.336 71.5404 137.336 70.1367C137.354 68.7331 137.363 67.6758 137.363 66.9648C137.363 65.6523 137.354 64.668 137.336 64.0117C136.57 64.1393 135.814 64.2122 135.066 64.2305C134.319 64.2487 133.79 64.276 133.48 64.3125C133.426 64.9141 133.38 65.8073 133.344 66.9922C133.307 68.1771 133.271 69.2253 133.234 70.1367C133.216 71.0299 133.107 72.0508 132.906 73.1992C132.706 74.3294 132.414 75.2956 132.031 76.0977C131.667 76.8815 131.092 77.5833 130.309 78.2031C129.543 78.8411 128.613 79.2604 127.52 79.4609ZM144.391 74.7305C144.391 75.0404 144.409 75.4505 144.445 75.9609C144.281 76.526 143.962 76.8086 143.488 76.8086C143.16 76.8086 142.841 76.681 142.531 76.4258C142.24 76.1523 142.057 75.8242 141.984 75.4414C142.039 73.9648 142.103 71.8047 142.176 68.9609C142.267 66.1172 142.331 64.194 142.367 63.1914L143.625 62.9727C143.844 64.1393 143.98 65.6888 144.035 67.6211C144.09 69.5534 144.163 70.9935 144.254 71.9414C144.6 71.431 145.585 70.1003 147.207 67.9492C148.829 65.7982 149.932 64.194 150.516 63.1367C150.917 63.0638 151.172 63.0273 151.281 63.0273C151.628 63.0273 151.865 63.1823 151.992 63.4922C152.138 63.8021 152.229 64.3854 152.266 65.2422L152.785 76.5078C152.621 77.0547 152.302 77.3281 151.828 77.3281C151.5 77.3281 151.181 77.2005 150.871 76.9453C150.579 76.6719 150.397 76.3438 150.324 75.9609C150.342 75.3594 150.388 73.8919 150.461 71.5586C150.552 69.207 150.625 67.5391 150.68 66.5547C147.562 70.1094 145.466 72.8346 144.391 74.7305ZM163.203 63.1367L164.434 63.4102L165.062 76.6719C164.898 77.2188 164.579 77.4922 164.105 77.4922C163.777 77.4922 163.458 77.3555 163.148 77.082C162.839 76.8268 162.647 76.5078 162.574 76.125C162.574 76.0703 162.656 74.5299 162.82 71.5039V71.2852C162.31 71.2487 161.553 71.2305 160.551 71.2305C159.038 71.2305 157.898 71.1849 157.133 71.0938C157.224 72.151 157.342 73.8555 157.488 76.207C157.324 76.7721 157.005 77.0547 156.531 77.0547C156.203 77.0547 155.884 76.9271 155.574 76.6719C155.283 76.3984 155.1 76.0703 155.027 75.6875C155.082 74.776 155.109 73.8646 155.109 72.9531C155.109 72.3698 155.1 71.4948 155.082 70.3281C155.064 69.1615 155.055 68.2956 155.055 67.7305C155.055 65.9805 155.109 64.513 155.219 63.3281L156.449 63.6289C156.814 67.5846 157.005 69.6172 157.023 69.7266C160.141 69.8906 161.745 69.9727 161.836 69.9727C162.583 69.9727 162.957 69.9271 162.957 69.8359C162.957 69.4714 162.993 68.3138 163.066 66.3633C163.139 64.4128 163.185 63.3372 163.203 63.1367ZM168.262 65.1875L167.715 63.793C168.189 63.319 168.79 62.9453 169.52 62.6719C170.249 62.3802 170.969 62.2344 171.68 62.2344C174.76 62.2344 176.301 64.8958 176.301 70.2188C176.301 70.9479 176.255 72.0234 176.164 73.4453C176.091 74.8672 176.055 75.9336 176.055 76.6445C175.909 77.2096 175.626 77.4922 175.207 77.4922C174.879 77.4922 174.578 77.3281 174.305 77C174.031 76.6719 173.895 76.3073 173.895 75.9062C173.895 75.7786 173.904 75.6875 173.922 75.6328C172.792 76.7266 171.589 77.2734 170.312 77.2734C169.346 77.2734 168.499 76.9271 167.77 76.2344C167.059 75.5234 166.703 74.6667 166.703 73.6641C166.703 71.9688 167.359 70.4375 168.672 69.0703C170.003 67.7031 171.507 67.0195 173.184 67.0195C173.257 67.0195 173.329 67.0286 173.402 67.0469C173.475 67.0469 173.557 67.056 173.648 67.0742C173.758 67.0924 173.84 67.1016 173.895 67.1016C173.749 64.9688 172.901 63.9023 171.352 63.9023C170.44 63.9023 169.41 64.3307 168.262 65.1875ZM173.977 73.7461C174.013 72.4701 174.031 71.5039 174.031 70.8477C174.031 70.3008 174.013 69.5352 173.977 68.5508H173.758C172.464 68.569 171.279 69.0521 170.203 70C169.146 70.9479 168.617 72.0964 168.617 73.4453C168.617 74.0286 168.79 74.4935 169.137 74.8398C169.501 75.1862 169.939 75.3594 170.449 75.3594C171.251 75.3594 172.427 74.8216 173.977 73.7461Z" fill="white"/>
<path d="M114.717 8.31953L113.441 9.2539H111.851H110.27L109.246 8.625C108.689 8.28359 108.177 8.01406 108.123 8.03203C108.06 8.05898 107.898 8.09492 107.763 8.12187C107.539 8.17578 107.512 8.2207 107.512 8.53515C107.512 8.84961 107.584 8.97539 108.168 9.63125L108.823 10.3769L108.734 10.7543C108.671 11.0598 108.617 11.1406 108.464 11.1406C108.356 11.1406 104.96 11.5 100.908 11.9312L93.541 12.7309L85.7965 12.5062L78.052 12.2906L77.2254 12.632C76.4348 12.9555 76.3809 13.0004 75.8238 13.6922C75.5004 14.0965 75.2039 14.5008 75.159 14.5996C74.9613 15.0848 74.5121 18.1305 74.4492 19.4961C74.4043 20.3137 74.2875 21.5266 74.1797 22.1914C74.027 23.1977 74 23.6109 74.0539 24.5723C74.0899 25.2551 74.1528 25.7672 74.2156 25.8031C74.4133 25.9379 74.593 25.866 74.8805 25.5156C75.1231 25.2281 75.2129 24.9676 75.4285 24.0242L75.6891 22.8922L75.4735 21.3109C75.2848 19.8824 75.2668 19.568 75.3836 19.6848C75.4016 19.7027 75.6352 20.8078 75.9047 22.1465L76.3899 24.5723L76.0574 26.6566L75.725 28.75L76.0574 33.4219L76.3899 38.0937L76.6504 38.3633L76.911 38.6328H78.2406C79.5164 38.6328 80.3789 38.525 80.3789 38.3543C80.3789 38.3094 79.8938 37.4918 79.3008 36.5305C78.7078 35.5781 78.2047 34.7246 78.1688 34.6527C78.1418 34.5719 78.3754 33.4309 78.6899 32.1191L79.2559 29.7293L79.5613 29.7562L79.8668 29.7832L80.927 32.9637C81.8434 35.7129 82.05 36.243 82.4633 36.9078C82.7328 37.3391 83.0922 37.7793 83.2899 37.923L83.6403 38.1836H85.0508C86.4344 38.1836 86.4613 38.1836 86.668 37.959C86.7848 37.8332 86.8477 37.7074 86.8207 37.6805C86.7848 37.6445 86.2278 37.2941 85.5719 36.8898L84.386 36.1621L83.5414 33.5656L82.6969 30.9691L82.9035 30.5289C83.1192 30.0707 83.1731 30.0527 83.811 30.1516C84.1254 30.2055 84.1434 30.2324 84.4219 30.9602C84.7543 31.8047 84.6824 31.8227 85.2664 30.8434C85.4551 30.5289 85.6168 30.2773 85.6348 30.2773C85.6617 30.2773 85.8594 30.6008 86.093 31.0051L86.5153 31.7238L86.8836 30.9062L87.252 30.0887L88.366 29.2441C88.977 28.777 89.516 28.3906 89.561 28.3906C89.6149 28.3906 91.3489 28.2289 93.4332 28.0312C95.5086 27.8336 97.2336 27.6988 97.2696 27.7348C97.2965 27.7797 97.593 28.1301 97.9164 28.5254L98.5004 29.2441L99.0574 33.1344C99.5785 36.7551 99.6324 37.0695 99.902 37.6086L100.18 38.1836H101.501C102.804 38.1836 102.822 38.1836 102.966 37.959C103.109 37.7434 103.1 37.7164 102.31 36.6293L101.519 35.5242L101.456 34.2215C101.429 33.5117 101.375 32.5504 101.348 32.0922L101.295 31.2477L101.735 31.4723L102.175 31.6969L102.822 33.7094C103.172 34.8055 103.648 36.2789 103.864 36.9617C104.394 38.6508 104.367 38.6328 105.966 38.6328H107.152L107.251 38.3902C107.332 38.1746 107.305 38.1117 106.982 37.7883C106.748 37.5457 106.263 36.7012 105.526 35.2727L104.43 33.1254L104.673 30.8703C104.951 28.2559 104.745 28.6602 106.416 27.4473L107.404 26.7285L109.246 23.3234L111.079 19.9273L113.181 18.957L115.283 17.9777L117.197 17.7621C118.634 17.6004 119.147 17.5105 119.272 17.3937C119.362 17.3129 119.569 16.8906 119.722 16.4504C119.991 15.7137 120 15.6418 119.874 15.3543C119.802 15.1746 118.688 13.9437 117.26 12.4523L114.78 9.86484L115.858 9.18203L116.936 8.49921L116.999 8.03203C117.026 7.77148 117.026 7.51992 116.99 7.46601C116.963 7.41211 116.721 7.36718 116.469 7.37617C116.02 7.37617 115.948 7.42109 114.717 8.31953Z" fill="white"/>
<path d="M1 57.5L82.066 38.1986C90.8985 36.0956 100.101 36.0956 108.934 38.1986L190 57.5" stroke="white" stroke-width="3"/>
</svg>
